<svg xmlns="http://www.w3.org/2000/svg" xmlns:xlink="http://www.w3.org/1999/xlink" id="Layer_1" data-name="Layer 1" viewBox="0 0 1080 1080"><defs><style>      .cls-1 {        fill: url(#New_Gradient_Swatch_1);      }      .cls-1, .cls-2, .cls-3, .cls-4, .cls-5, .cls-6, .cls-7, .cls-8, .cls-9, .cls-10, .cls-11, .cls-12 {        stroke-width: 0px;      }      .cls-2 {        fill: url(#New_Gradient_Swatch_1-7);      }      .cls-3 {        fill: url(#New_Gradient_Swatch_1-4);      }      .cls-4 {        fill: url(#New_Gradient_Swatch_1-6);      }      .cls-5 {        fill: url(#New_Gradient_Swatch_1-9);      }      .cls-6 {        fill: url(#New_Gradient_Swatch_1-3);      }      .cls-7 {        fill: url(#New_Gradient_Swatch_1-2);      }      .cls-8 {        fill: url(#New_Gradient_Swatch_1-8);      }      .cls-9 {        fill: url(#New_Gradient_Swatch_1-5);      }      .cls-10 {        fill: #00cf9f;      }      .cls-11 {        fill: #00d38d;      }      .cls-12 {        fill: #00b8fb;      }    </style><linearGradient id="New_Gradient_Swatch_1" data-name="New Gradient Swatch 1" x1="84.76" y1="535.62" x2="983.83" y2="524.47" gradientUnits="userSpaceOnUse"><stop offset="0" stop-color="#00d38d"></stop><stop offset=".23" stop-color="#00d290"></stop><stop offset=".42" stop-color="#00cf9a"></stop><stop offset=".58" stop-color="#00cbaa"></stop><stop offset=".74" stop-color="#00c5c2"></stop><stop offset=".89" stop-color="#00bee0"></stop><stop offset="1" stop-color="#00b8fb"></stop></linearGradient><linearGradient id="New_Gradient_Swatch_1-2" data-name="New Gradient Swatch 1" x1="-115.61" y1="398.1" x2="1023.02" y2="383.98" xlink:href="#New_Gradient_Swatch_1"></linearGradient><linearGradient id="New_Gradient_Swatch_1-3" data-name="New Gradient Swatch 1" x1="113.78" y1="681.11" x2="987.32" y2="670.27" xlink:href="#New_Gradient_Swatch_1"></linearGradient><linearGradient id="New_Gradient_Swatch_1-4" data-name="New Gradient Swatch 1" x1="113.86" y1="687.77" x2="987.4" y2="676.93" xlink:href="#New_Gradient_Swatch_1"></linearGradient><linearGradient id="New_Gradient_Swatch_1-5" data-name="New Gradient Swatch 1" x1="113.86" y1="688.09" x2="987.41" y2="677.26" xlink:href="#New_Gradient_Swatch_1"></linearGradient><linearGradient id="New_Gradient_Swatch_1-6" data-name="New Gradient Swatch 1" x1="113.87" y1="688.66" x2="987.42" y2="677.82" xlink:href="#New_Gradient_Swatch_1"></linearGradient><linearGradient id="New_Gradient_Swatch_1-7" data-name="New Gradient Swatch 1" x1="113.88" y1="689.7" x2="987.43" y2="678.87" xlink:href="#New_Gradient_Swatch_1"></linearGradient><linearGradient id="New_Gradient_Swatch_1-8" data-name="New Gradient Swatch 1" x1="114" y1="698.83" x2="987.54" y2="688" xlink:href="#New_Gradient_Swatch_1"></linearGradient><linearGradient id="New_Gradient_Swatch_1-9" data-name="New Gradient Swatch 1" x1="113.9" y1="690.88" x2="987.44" y2="680.04" xlink:href="#New_Gradient_Swatch_1"></linearGradient></defs><g><circle class="cls-11" cx="232.07" cy="388.13" r="25.71" transform="translate(-220.1 381.49) rotate(-58.28)"></circle><circle class="cls-11" cx="158.11" cy="388.13" r="25.71"></circle></g><circle class="cls-10" cx="408.55" cy="674.85" r="25.71" transform="translate(-178.03 147.35) rotate(-16.85)"></circle><circle class="cls-10" cx="334.59" cy="674.85" r="25.71" transform="translate(-181.2 125.91) rotate(-16.85)"></circle><circle class="cls-12" cx="906.7" cy="388.13" r="25.71" transform="translate(99.86 955.36) rotate(-58.28)"></circle><circle class="cls-12" cx="832.74" cy="388.13" r="25.71"></circle><path class="cls-1" d="m979.03,439.38c-4.69-8.45-11.48-15.02-21.9-15.67-10.07-.64-19.87,6.1-23.06,15.61-3.98,11.85,2.81,24.42,6.54,35.46,9.12,26.95,8.31,62.45-8.9,86.08-13.38,18.38-34.85,30.06-57.61,30.93-35.91,1.36-66.53-22.54-75.28-55.4-3.59-11.26-13.98-19-25.87-19s-22.92,8.29-26.23,20.14c-8.79,31.54-37.73,54.68-72.07,54.68-18.03,0-34.53-6.42-47.44-17.04,5.75-13.25,8.96-27.86,8.96-43.23,0-60.04-48.67-108.72-108.72-108.72s-108.72,48.67-108.72,108.72c0,14.84,2.98,28.98,8.37,41.87-13.14,11.45-30.31,18.4-49.11,18.4-24.38,0-48.13-12.81-62-32.78-14.59-20.99-10.36-46.35-19.88-69.26-16.45-39.58-56.01-67.8-99.15-68.34-62.57-.78-113.18,51.3-109.98,114.39,2.88,56.7,50.04,102.13,106.81,103.04,23.94.38,46.13-6.97,64.26-19.73,8.53-6,11.15-17.48,6.31-26.72-5.83-11.11-20.13-14.74-30.38-7.51-11.29,7.95-25.14,12.5-40.08,12.13-34.35-.84-62.97-28.32-65.1-62.61-2.42-38.89,28.41-71.19,66.78-71.19s66.9,29.95,66.92,66.91c0,2.26.09,4.5.23,6.73,0,.17.03.33.04.5.11,1.61.24,3.22.42,4.85.41,3.7,1.01,7.34,1.78,10.93.25,1.17.52,2.34.81,3.5.59,2.36,1.27,4.69,2.01,6.98.18.55.37,1.09.55,1.63.34,1,.68,1.99,1.05,2.98.24.63.5,1.24.74,1.87.01.03.03.07.04.1,1.22,3.08,2.58,6.09,4.07,9.03.01.02.02.04.03.07.69,1.36,1.41,2.71,2.17,4.07.48.85,2.26,3.37,3.6,5.29-.02.04-.04.09-.05.13.38.52.8,1.01,1.19,1.53.1.16.21.32.3.39,22.21,29.05,57.16,47.84,96.55,47.84,28.81,0,55.24-10.07,76.06-26.83,19.34,17.71,45.1,28.52,73.39,28.52s53.11-10.43,72.32-27.57c20.64,16.19,46.61,25.88,74.88,25.88,40.55,0,76.43-19.87,98.52-50.38,21.3,28.88,55.01,48.15,92.99,49.64,39.58,1.55,80-17.19,103.41-49.45,24.34-33.54,28.47-83.94,18.65-123-2.04-8.1-4.63-18.14-9.21-26.38Zm-451.8,159.43c-36.78,0-66.6-29.82-66.6-66.6s29.82-66.6,66.6-66.6,66.6,29.82,66.6,66.6-29.82,66.6-66.6,66.6Z"></path><circle class="cls-7" cx="674.31" cy="388.3" r="25.88"></circle><g><polygon class="cls-6" points="492.93 652.97 454.66 652.97 454.66 662.5 468.64 662.5 468.64 700.49 478.94 700.49 478.94 662.5 492.93 662.5 492.93 652.97"></polygon><path class="cls-3" d="m510.87,664.27c-10.8,0-18.15,8.33-18.15,18.43,0,11.16,8.19,18.71,19.07,18.71,7.41,0,13.2-3.6,16.24-9.89l-7.7-3.88c-1.62,3.25-4.8,5.09-8.61,5.09-5.02,0-8.62-3.11-9.32-7.77h25.98v-2.96c0-9.53-6.42-17.72-17.51-17.72Zm-8.05,15.11c.71-3.53,3.6-6.35,7.98-6.35s7.2,2.75,7.63,6.35h-15.61Z"></path><path class="cls-9" d="m553.95,664.55c-12.22,0-18.22,8.33-18.22,18.5v17.44h10.03v-16.24c0-5.36,2.54-9.95,8.19-9.95s8.33,4.59,8.33,9.95v16.24h10.03v-17.44c0-10.24-6.14-18.5-18.36-18.5Z"></path><path class="cls-4" d="m624.78,664.27c-6.28,0-11.23,2.96-13.41,7.77-2.05-4.8-6.92-7.77-13.63-7.77-11.3,0-17.02,8.19-17.02,17.93v18.29h10.03v-16.66c0-5.29,2.19-9.81,7.77-9.81s7.77,4.45,7.77,9.81v16.66h10.03v-16.73c0-5.29,2.33-9.74,7.77-9.74s7.84,4.52,7.84,9.88v16.59h10.03v-18.29c0-9.74-5.79-17.93-17.16-17.93Z"></path><path class="cls-2" d="m666.74,664.27c-10.8,0-18.15,8.33-18.15,18.43,0,11.16,8.19,18.71,19.07,18.71,7.41,0,13.2-3.6,16.24-9.89l-7.7-3.88c-1.63,3.25-4.8,5.09-8.62,5.09-5.02,0-8.62-3.11-9.32-7.77h25.99v-2.96c0-9.53-6.43-17.72-17.51-17.72Zm-8.05,15.11c.71-3.53,3.6-6.35,7.98-6.35s7.2,2.75,7.63,6.35h-15.61Z"></path><path class="cls-8" d="m717.66,682.7c0,5.01-3.39,8.76-7.91,8.76-4.94,0-7.7-3.46-7.7-8.55v-17.37h-9.88v17.72c0,10.38,4.94,17.65,16.31,17.65,4.31,0,7.41-1.55,9.32-4.38v.99c0,6.5-3.46,10.88-9.46,10.88-4.52,0-7.63-2.33-9.18-5.37l-8.26,4.52c3.18,6.5,9.25,10.03,17.58,10.03,11.51,0,19.34-7.98,19.34-20.19v-31.85h-10.17v17.16Z"></path><path class="cls-5" d="m754.39,664.48c-10.73,0-18.93,8.41-18.93,18.43s7.13,18.5,17.3,18.5c4.8,0,8.62-1.91,11.09-5.02v4.1h9.53v-17.58c0-10.52-8.05-18.43-18.99-18.43Zm0,27.54c-5.16,0-8.9-4.1-8.9-9.04s3.74-9.04,8.9-9.04,8.96,4.09,8.96,9.04-3.81,9.04-8.96,9.04Z"></path></g></svg>